#usda 1.0
(
    customLayerData = {
        dictionary cameraSettings = {
            dictionary Front = {
                double3 position = (5, 0, 0)
                double radius = 5
            }
            dictionary Perspective = {
                double3 position = (-7.03775926470272, -11.766519664913796, 6.581229629782345)
                double3 target = (0.40394283130804354, 0.49338328868232395, 0.6192853126250242)
            }
            dictionary Right = {
                double3 position = (0, -5, 0)
                double radius = 5
            }
            dictionary Top = {
                double3 position = (-0.2675810960676957, 0.23691277560148388, 5)
                double radius = 1.8510034561157227
            }
            string boundCamera = "/OmniverseKit_Persp"
        }
        dictionary omni_layer = {
            string authoring_layer = "./so101_pick_place_task.usda"
            dictionary locked = {
            }
            dictionary muteness = {
            }
        }
        int refinementOverrideImplVersion = 0
        dictionary renderSettings = {
        }
    }
    defaultPrim = "World"
    metersPerUnit = 1
    subLayers = [
        @./so101_table_mounted.usda@
    ]
    upAxis = "Z"
)

over "World"
{
    over "Table" (
        references = @../assets/objects/wood_frame_table_rtx.usda@
    )
    {
        over "WoodGrain" (
            active = false
        )
        {
        }
    }

    over "PhysicsScene" (
        prepend apiSchemas = ["PhysxSceneAPI"]
    )
    {
    }

    over "TableOverview"
    {
        custom uniform vector3d omni:kit:centerOfInterest = (0, 0, -5.124195658716535)
        token visibility = "inherited"
        matrix4d xformOp:transform = ( (0.8002572339512533, 0.5996568681410098, -5.730008481585891e-17, 0), (-0.2282129617158744, 0.3045559605791474, 0.9247510535168787, 0), (0.5545333205620314, -0.7400387201809259, 0.3805725804881619, 0), (2.7369822572623423, -3.5199045362273784, 2.597134829194206, 1.0000000000000002) )
    }

    over "so101_new_calib"
    {
        string isaac:namespace (
            displayName = "Namespace"
            doc = "Namespace of the prim in Isaac Sim"
        )

        over "base_link"
        {
        }

        over "shoulder_link"
        {
        }

        over "upper_arm_link"
        {
        }

        over "lower_arm_link"
        {
        }

        over "wrist_link"
        {
        }

        over "gripper_link"
        {
            def Cube "fixed_finger_collision" (
                prepend apiSchemas = ["MaterialBindingAPI", "PhysicsCollisionAPI", "PhysxCollisionAPI"]
            )
            {
                double size = 1
                bool physics:collisionEnabled = 1
                rel material:binding:physics = </World/TaskObjects/GraspContactMaterial>
                double3 xformOp:scale = (0.012, 0.014, 0.065)
                double3 xformOp:translate = (-0.006, 0, -0.073)
                uniform token[] xformOpOrder = ["xformOp:translate", "xformOp:scale"]
            }
        }

        over "moving_jaw_so101_v1_link"
        {
            def Cube "moving_finger_collision" (
                prepend apiSchemas = ["MaterialBindingAPI", "PhysicsCollisionAPI", "PhysxCollisionAPI"]
            )
            {
                double size = 1
                bool physics:collisionEnabled = 1
                rel material:binding:physics = </World/TaskObjects/GraspContactMaterial>
                double3 xformOp:scale = (0.014, 0.065, 0.014)
                double3 xformOp:translate = (0, -0.050, 0.019)
                uniform token[] xformOpOrder = ["xformOp:translate", "xformOp:scale"]
            }
        }

        over "gripper_frame_link"
        {
        }

        over "joints"
        {
            over "shoulder_pan"
            {
                float state:angular:physics:position = 0
                float state:angular:physics:velocity = 0
            }

            over "shoulder_lift"
            {
                float state:angular:physics:position = 0
                float state:angular:physics:velocity = 0
            }

            over "elbow_flex"
            {
                float state:angular:physics:position = 0
                float state:angular:physics:velocity = 0
            }

            over "wrist_flex"
            {
                float state:angular:physics:position = 0
                float state:angular:physics:velocity = 0
            }

            over "wrist_roll"
            {
                float state:angular:physics:position = 0
                float state:angular:physics:velocity = 0
            }

            over "gripper"
            {
                float state:angular:physics:position = 0
                float state:angular:physics:velocity = 0
            }
        }
    }

    def Xform "TaskObjects"
    {
        def Material "GraspContactMaterial" (
            prepend apiSchemas = ["PhysicsMaterialAPI"]
        )
        {
            float physics:dynamicFriction = 2.0
            float physics:restitution = 0
            float physics:staticFriction = 2.0
        }
        quatd xformOp:orient = (1, 0, 0, 0)
        double3 xformOp:scale = (1, 1, 1)
        double3 xformOp:translate = (0, 0, 0)
        uniform token[] xformOpOrder = ["xformOp:translate", "xformOp:orient", "xformOp:scale"]

        def Mesh "PickCube" (
            prepend apiSchemas = ["MaterialBindingAPI", "PhysicsCollisionAPI", "PhysxCollisionAPI", "PhysxTriangleMeshCollisionAPI", "PhysicsMeshCollisionAPI", "PhysicsRigidBodyAPI", "PhysxRigidBodyAPI", "PhysicsMassAPI"]
        )
        {
            uniform bool doubleSided = 0
            float3[] extent = [(-0.5, -0.5, -0.5), (0.5, 0.5, 0.5)]
            int[] faceVertexCounts = [4, 4, 4, 4, 4, 4]
            int[] faceVertexIndices = [0, 1, 3, 2, 4, 6, 7, 5, 6, 2, 3, 7, 4, 5, 1, 0, 4, 0, 2, 6, 5, 7, 3, 1]
            normal3f[] normals = [(0, 0, 1), (0, 0, 1), (0, 0, 1), (0, 0, 1), (0, 0, -1), (0, 0, -1), (0, 0, -1), (0, 0, -1), (0, 1, 0), (0, 1, 0), (0, 1, 0), (0, 1, 0), (0, -1, 0), (0, -1, 0), (0, -1, 0), (0, -1, 0), (-1, 0, 0), (-1, 0, 0), (-1, 0, 0), (-1, 0, 0), (1, 0, 0), (1, 0, 0), (1, 0, 0), (1, 0, 0)] (
                interpolation = "faceVarying"
            )
            uniform token physics:approximation = "convexHull"
            bool physics:collisionEnabled = 1
            rel material:binding:physics = </World/TaskObjects/GraspContactMaterial>
            bool physics:kinematicEnabled = 0
            float physics:mass = 0.05
            bool physics:rigidBodyEnabled = 1
            point3f[] points = [(-0.5, -0.5, 0.5), (0.5, -0.5, 0.5), (-0.5, 0.5, 0.5), (0.5, 0.5, 0.5), (-0.5, -0.5, -0.5), (0.5, -0.5, -0.5), (-0.5, 0.5, -0.5), (0.5, 0.5, -0.5)]
            texCoord2f[] primvars:st = [(0, 0), (1, 0), (1, 1), (0, 1), (1, 0), (1, 1), (0, 1), (0, 0), (0, 1), (0, 0), (1, 0), (1, 1), (0, 0), (1, 0), (1, 1), (0, 1), (0, 0), (1, 0), (1, 1), (0, 1), (1, 0), (1, 1), (0, 1), (0, 0)] (
                interpolation = "faceVarying"
            )
            bool singleSided = 0
            uniform token subdivisionScheme = "none"
            quatd xformOp:orient = (1, 0, 0, 0)
            double3 xformOp:scale = (0.04, 0.04, 0.04)
            double3 xformOp:translate = (0.2, 0.05, 0.8)
            uniform token[] xformOpOrder = ["xformOp:translate", "xformOp:orient", "xformOp:scale"]
        }

        def Mesh "PlaceTarget" (
            prepend apiSchemas = ["MaterialBindingAPI"]
        )
        {
            float3[] extent = [(-0.5, -0.5, -0.5), (0.5, 0.5, 0.5)]
            int[] faceVertexCounts = [4, 4, 4, 4, 4, 4, 4, 4, 4, 4, 4, 4, 4, 4, 4, 4, 4, 4, 4, 4, 4, 4, 4, 4, 4, 4, 4, 4, 4, 4, 4, 4, 3, 3, 3, 3, 3, 3, 3, 3, 3, 3, 3, 3, 3, 3, 3, 3, 3, 3, 3, 3, 3, 3, 3, 3, 3, 3, 3, 3, 3, 3, 3, 3, 3, 3, 3, 3, 3, 3, 3, 3, 3, 3, 3, 3, 3, 3, 3, 3, 3, 3, 3, 3, 3, 3, 3, 3, 3, 3, 3, 3, 3, 3, 3, 3]
            int[] faceVertexIndices = [0, 1, 33, 32, 1, 2, 34, 33, 2, 3, 35, 34, 3, 4, 36, 35, 4, 5, 37, 36, 5, 6, 38, 37, 6, 7, 39, 38, 7, 8, 40, 39, 8, 9, 41, 40, 9, 10, 42, 41, 10, 11, 43, 42, 11, 12, 44, 43, 12, 13, 45, 44, 13, 14, 46, 45, 14, 15, 47, 46, 15, 16, 48, 47, 16, 17, 49, 48, 17, 18, 50, 49, 18, 19, 51, 50, 19, 20, 52, 51, 20, 21, 53, 52, 21, 22, 54, 53, 22, 23, 55, 54, 23, 24, 56, 55, 24, 25, 57, 56, 25, 26, 58, 57, 26, 27, 59, 58, 27, 28, 60, 59, 28, 29, 61, 60, 29, 30, 62, 61, 30, 31, 63, 62, 31, 0, 32, 63, 0, 64, 1, 1, 64, 2, 2, 64, 3, 3, 64, 4, 4, 64, 5, 5, 64, 6, 6, 64, 7, 7, 64, 8, 8, 64, 9, 9, 64, 10, 10, 64, 11, 11, 64, 12, 12, 64, 13, 13, 64, 14, 14, 64, 15, 15, 64, 16, 16, 64, 17, 17, 64, 18, 18, 64, 19, 19, 64, 20, 20, 64, 21, 21, 64, 22, 22, 64, 23, 23, 64, 24, 24, 64, 25, 25, 64, 26, 26, 64, 27, 27, 64, 28, 28, 64, 29, 29, 64, 30, 30, 64, 31, 31, 64, 0, 32, 33, 65, 33, 34, 65, 34, 35, 65, 35, 36, 65, 36, 37, 65, 37, 38, 65, 38, 39, 65, 39, 40, 65, 40, 41, 65, 41, 42, 65, 42, 43, 65, 43, 44, 65, 44, 45, 65, 45, 46, 65, 46, 47, 65, 47, 48, 65, 48, 49, 65, 49, 50, 65, 50, 51, 65, 51, 52, 65, 52, 53, 65, 53, 54, 65, 54, 55, 65, 55, 56, 65, 56, 57, 65, 57, 58, 65, 58, 59, 65, 59, 60, 65, 60, 61, 65, 61, 62, 65, 62, 63, 65, 63, 32, 65]
            rel material:binding = </World/PlaceTargetGreen> (
                bindMaterialAs = "weakerThanDescendants"
            )
            normal3f[] normals = [(50, 0, 0), (49.03926, 9.754517, 0), (49.03926, 9.754517, 0), (50, 0, 0), (49.03926, 9.754517, 0), (46.193974, 19.13417, 0), (46.193974, 19.13417, 0), (49.03926, 9.754517, 0), (46.193974, 19.13417, 0), (41.57348, 27.778513, 0), (41.57348, 27.778513, 0), (46.193974, 19.13417, 0), (41.57348, 27.778513, 0), (35.35534, 35.35534, 0), (35.35534, 35.35534, 0), (41.57348, 27.778513, 0), (35.35534, 35.35534, 0), (27.778513, 41.57348, 0), (27.778513, 41.57348, 0), (35.35534, 35.35534, 0), (27.778513, 41.57348, 0), (19.13417, 46.193974, 0), (19.13417, 46.193974, 0), (27.778513, 41.57348, 0), (19.13417, 46.193974, 0), (9.754517, 49.03926, 0), (9.754517, 49.03926, 0), (19.13417, 46.193974, 0), (9.754517, 49.03926, 0), (3.061617e-15, 50, 0), (3.061617e-15, 50, 0), (9.754517, 49.03926, 0), (3.061617e-15, 50, 0), (-9.754517, 49.03926, 0), (-9.754517, 49.03926, 0), (3.061617e-15, 50, 0), (-9.754517, 49.03926, 0), (-19.13417, 46.193974, 0), (-19.13417, 46.193974, 0), (-9.754517, 49.03926, 0), (-19.13417, 46.193974, 0), (-27.778513, 41.57348, 0), (-27.778513, 41.57348, 0), (-19.13417, 46.193974, 0), (-27.778513, 41.57348, 0), (-35.35534, 35.35534, 0), (-35.35534, 35.35534, 0), (-27.778513, 41.57348, 0), (-35.35534, 35.35534, 0), (-41.57348, 27.778513, 0), (-41.57348, 27.778513, 0), (-35.35534, 35.35534, 0), (-41.57348, 27.778513, 0), (-46.193974, 19.13417, 0), (-46.193974, 19.13417, 0), (-41.57348, 27.778513, 0), (-46.193974, 19.13417, 0), (-49.03926, 9.754517, 0), (-49.03926, 9.754517, 0), (-46.193974, 19.13417, 0), (-49.03926, 9.754517, 0), (-50, 6.123234e-15, 0), (-50, 6.123234e-15, 0), (-49.03926, 9.754517, 0), (-50, 6.123234e-15, 0), (-49.03926, -9.754517, 0), (-49.03926, -9.754517, 0), (-50, 6.123234e-15, 0), (-49.03926, -9.754517, 0), (-46.193974, -19.13417, 0), (-46.193974, -19.13417, 0), (-49.03926, -9.754517, 0), (-46.193974, -19.13417, 0), (-41.57348, -27.778513, 0), (-41.57348, -27.778513, 0), (-46.193974, -19.13417, 0), (-41.57348, -27.778513, 0), (-35.35534, -35.35534, 0), (-35.35534, -35.35534, 0), (-41.57348, -27.778513, 0), (-35.35534, -35.35534, 0), (-27.778513, -41.57348, 0), (-27.778513, -41.57348, 0), (-35.35534, -35.35534, 0), (-27.778513, -41.57348, 0), (-19.13417, -46.193974, 0), (-19.13417, -46.193974, 0), (-27.778513, -41.57348, 0), (-19.13417, -46.193974, 0), (-9.754517, -49.03926, 0), (-9.754517, -49.03926, 0), (-19.13417, -46.193974, 0), (-9.754517, -49.03926, 0), (-9.184851e-15, -50, 0), (-9.184851e-15, -50, 0), (-9.754517, -49.03926, 0), (-9.184851e-15, -50, 0), (9.754517, -49.03926, 0), (9.754517, -49.03926, 0), (-9.184851e-15, -50, 0), (9.754517, -49.03926, 0), (19.13417, -46.193974, 0), (19.13417, -46.193974, 0), (9.754517, -49.03926, 0), (19.13417, -46.193974, 0), (27.778513, -41.57348, 0), (27.778513, -41.57348, 0), (19.13417, -46.193974, 0), (27.778513, -41.57348, 0), (35.35534, -35.35534, 0), (35.35534, -35.35534, 0), (27.778513, -41.57348, 0), (35.35534, -35.35534, 0), (41.57348, -27.778513, 0), (41.57348, -27.778513, 0), (35.35534, -35.35534, 0), (41.57348, -27.778513, 0), (46.193974, -19.13417, 0), (46.193974, -19.13417, 0), (41.57348, -27.778513, 0), (46.193974, -19.13417, 0), (49.03926, -9.754517, 0), (49.03926, -9.754517, 0), (46.193974, -19.13417, 0), (49.03926, -9.754517, 0), (50, 0, 0), (50, 0, 0), (49.03926, -9.754517, 0), (0, 0, -1), (0, 0, -1), (0, 0, -1), (0, 0, -1), (0, 0, -1), (0, 0, -1), (0, 0, -1), (0, 0, -1), (0, 0, -1), (0, 0, -1), (0, 0, -1), (0, 0, -1), (0, 0, -1), (0, 0, -1), (0, 0, -1), (0, 0, -1), (0, 0, -1), (0, 0, -1), (0, 0, -1), (0, 0, -1), (0, 0, -1), (0, 0, -1), (0, 0, -1), (0, 0, -1), (0, 0, -1), (0, 0, -1), (0, 0, -1), (0, 0, -1), (0, 0, -1), (0, 0, -1), (0, 0, -1), (0, 0, -1), (0, 0, -1), (0, 0, -1), (0, 0, -1), (0, 0, -1), (0, 0, -1), (0, 0, -1), (0, 0, -1), (0, 0, -1), (0, 0, -1), (0, 0, -1), (0, 0, -1), (0, 0, -1), (0, 0, -1), (0, 0, -1), (0, 0, -1), (0, 0, -1), (0, 0, -1), (0, 0, -1), (0, 0, -1), (0, 0, -1), (0, 0, -1), (0, 0, -1), (0, 0, -1), (0, 0, -1), (0, 0, -1), (0, 0, -1), (0, 0, -1), (0, 0, -1), (0, 0, -1), (0, 0, -1), (0, 0, -1), (0, 0, -1), (0, 0, -1), (0, 0, -1), (0, 0, -1), (0, 0, -1), (0, 0, -1), (0, 0, -1), (0, 0, -1), (0, 0, -1), (0, 0, -1), (0, 0, -1), (0, 0, -1), (0, 0, -1), (0, 0, -1), (0, 0, -1), (0, 0, -1), (0, 0, -1), (0, 0, -1), (0, 0, -1), (0, 0, -1), (0, 0, -1), (0, 0, -1), (0, 0, -1), (0, 0, -1), (0, 0, -1), (0, 0, -1), (0, 0, -1), (0, 0, -1), (0, 0, -1), (0, 0, -1), (0, 0, -1), (0, 0, -1), (0, 0, -1), (0, 0, 1), (0, 0, 1), (0, 0, 1), (0, 0, 1), (0, 0, 1), (0, 0, 1), (0, 0, 1), (0, 0, 1), (0, 0, 1), (0, 0, 1), (0, 0, 1), (0, 0, 1), (0, 0, 1), (0, 0, 1), (0, 0, 1), (0, 0, 1), (0, 0, 1), (0, 0, 1), (0, 0, 1), (0, 0, 1), (0, 0, 1), (0, 0, 1), (0, 0, 1), (0, 0, 1), (0, 0, 1), (0, 0, 1), (0, 0, 1), (0, 0, 1), (0, 0, 1), (0, 0, 1), (0, 0, 1), (0, 0, 1), (0, 0, 1), (0, 0, 1), (0, 0, 1), (0, 0, 1), (0, 0, 1), (0, 0, 1), (0, 0, 1), (0, 0, 1), (0, 0, 1), (0, 0, 1), (0, 0, 1), (0, 0, 1), (0, 0, 1), (0, 0, 1), (0, 0, 1), (0, 0, 1), (0, 0, 1), (0, 0, 1), (0, 0, 1), (0, 0, 1), (0, 0, 1), (0, 0, 1), (0, 0, 1), (0, 0, 1), (0, 0, 1), (0, 0, 1), (0, 0, 1), (0, 0, 1), (0, 0, 1), (0, 0, 1), (0, 0, 1), (0, 0, 1), (0, 0, 1), (0, 0, 1), (0, 0, 1), (0, 0, 1), (0, 0, 1), (0, 0, 1), (0, 0, 1), (0, 0, 1), (0, 0, 1), (0, 0, 1), (0, 0, 1), (0, 0, 1), (0, 0, 1), (0, 0, 1), (0, 0, 1), (0, 0, 1), (0, 0, 1), (0, 0, 1), (0, 0, 1), (0, 0, 1), (0, 0, 1), (0, 0, 1), (0, 0, 1), (0, 0, 1), (0, 0, 1), (0, 0, 1), (0, 0, 1), (0, 0, 1), (0, 0, 1), (0, 0, 1), (0, 0, 1), (0, 0, 1)] (
                interpolation = "faceVarying"
            )
            point3f[] points = [(0.5, 0, -0.5), (0.4903926, 0.09754517, -0.5), (0.46193972, 0.1913417, -0.5), (0.4157348, 0.27778512, -0.5), (0.35355338, 0.35355338, -0.5), (0.27778512, 0.4157348, -0.5), (0.1913417, 0.46193972, -0.5), (0.09754517, 0.4903926, -0.5), (3.061617e-17, 0.5, -0.5), (-0.09754517, 0.4903926, -0.5), (-0.1913417, 0.46193972, -0.5), (-0.27778512, 0.4157348, -0.5), (-0.35355338, 0.35355338, -0.5), (-0.4157348, 0.27778512, -0.5), (-0.46193972, 0.1913417, -0.5), (-0.4903926, 0.09754517, -0.5), (-0.5, 6.123234e-17, -0.5), (-0.4903926, -0.09754517, -0.5), (-0.46193972, -0.1913417, -0.5), (-0.4157348, -0.27778512, -0.5), (-0.35355338, -0.35355338, -0.5), (-0.27778512, -0.4157348, -0.5), (-0.1913417, -0.46193972, -0.5), (-0.09754517, -0.4903926, -0.5), (-9.184851e-17, -0.5, -0.5), (0.09754517, -0.4903926, -0.5), (0.1913417, -0.46193972, -0.5), (0.27778512, -0.4157348, -0.5), (0.35355338, -0.35355338, -0.5), (0.4157348, -0.27778512, -0.5), (0.46193972, -0.1913417, -0.5), (0.4903926, -0.09754517, -0.5), (0.5, 0, 0.5), (0.4903926, 0.09754517, 0.5), (0.46193972, 0.1913417, 0.5), (0.4157348, 0.27778512, 0.5), (0.35355338, 0.35355338, 0.5), (0.27778512, 0.4157348, 0.5), (0.1913417, 0.46193972, 0.5), (0.09754517, 0.4903926, 0.5), (3.061617e-17, 0.5, 0.5), (-0.09754517, 0.4903926, 0.5), (-0.1913417, 0.46193972, 0.5), (-0.27778512, 0.4157348, 0.5), (-0.35355338, 0.35355338, 0.5), (-0.4157348, 0.27778512, 0.5), (-0.46193972, 0.1913417, 0.5), (-0.4903926, 0.09754517, 0.5), (-0.5, 6.123234e-17, 0.5), (-0.4903926, -0.09754517, 0.5), (-0.46193972, -0.1913417, 0.5), (-0.4157348, -0.27778512, 0.5), (-0.35355338, -0.35355338, 0.5), (-0.27778512, -0.4157348, 0.5), (-0.1913417, -0.46193972, 0.5), (-0.09754517, -0.4903926, 0.5), (-9.184851e-17, -0.5, 0.5), (0.09754517, -0.4903926, 0.5), (0.1913417, -0.46193972, 0.5), (0.27778512, -0.4157348, 0.5), (0.35355338, -0.35355338, 0.5), (0.4157348, -0.27778512, 0.5), (0.46193972, -0.1913417, 0.5), (0.4903926, -0.09754517, 0.5), (0, 0, -0.5), (0, 0, 0.5)]
            texCoord2f[] primvars:st = [(0, 0), (0.03125, 0), (0.03125, 1), (0, 1), (0.03125, 0), (0.0625, 0), (0.0625, 1), (0.03125, 1), (0.0625, 0), (0.09375, 0), (0.09375, 1), (0.0625, 1), (0.09375, 0), (0.125, 0), (0.125, 1), (0.09375, 1), (0.125, 0), (0.15625, 0), (0.15625, 1), (0.125, 1), (0.15625, 0), (0.1875, 0), (0.1875, 1), (0.15625, 1), (0.1875, 0), (0.21875, 0), (0.21875, 1), (0.1875, 1), (0.21875, 0), (0.25, 0), (0.25, 1), (0.21875, 1), (0.25, 0), (0.28125, 0), (0.28125, 1), (0.25, 1), (0.28125, 0), (0.3125, 0), (0.3125, 1), (0.28125, 1), (0.3125, 0), (0.34375, 0), (0.34375, 1), (0.3125, 1), (0.34375, 0), (0.375, 0), (0.375, 1), (0.34375, 1), (0.375, 0), (0.40625, 0), (0.40625, 1), (0.375, 1), (0.40625, 0), (0.4375, 0), (0.4375, 1), (0.40625, 1), (0.4375, 0), (0.46875, 0), (0.46875, 1), (0.4375, 1), (0.46875, 0), (0.5, 0), (0.5, 1), (0.46875, 1), (0.5, 0), (0.53125, 0), (0.53125, 1), (0.5, 1), (0.53125, 0), (0.5625, 0), (0.5625, 1), (0.53125, 1), (0.5625, 0), (0.59375, 0), (0.59375, 1), (0.5625, 1), (0.59375, 0), (0.625, 0), (0.625, 1), (0.59375, 1), (0.625, 0), (0.65625, 0), (0.65625, 1), (0.625, 1), (0.65625, 0), (0.6875, 0), (0.6875, 1), (0.65625, 1), (0.6875, 0), (0.71875, 0), (0.71875, 1), (0.6875, 1), (0.71875, 0), (0.75, 0), (0.75, 1), (0.71875, 1), (0.75, 0), (0.78125, 0), (0.78125, 1), (0.75, 1), (0.78125, 0), (0.8125, 0), (0.8125, 1), (0.78125, 1), (0.8125, 0), (0.84375, 0), (0.84375, 1), (0.8125, 1), (0.84375, 0), (0.875, 0), (0.875, 1), (0.84375, 1), (0.875, 0), (0.90625, 0), (0.90625, 1), (0.875, 1), (0.90625, 0), (0.9375, 0), (0.9375, 1), (0.90625, 1), (0.9375, 0), (0.96875, 0), (0.96875, 1), (0.9375, 1), (0.96875, 0), (1, 0), (1, 1), (0.96875, 1), (1, 0.5), (0.5, 0.5), (0.99039257, 0.40245485), (0.99039257, 0.40245485), (0.5, 0.5), (0.9619397, 0.3086583), (0.9619397, 0.3086583), (0.5, 0.5), (0.91573477, 0.22221488), (0.91573477, 0.22221488), (0.5, 0.5), (0.8535534, 0.14644659), (0.8535534, 0.14644659), (0.5, 0.5), (0.7777851, 0.08426523), (0.7777851, 0.08426523), (0.5, 0.5), (0.6913417, 0.038060308), (0.6913417, 0.038060308), (0.5, 0.5), (0.59754515, 0.009607434), (0.59754515, 0.009607434), (0.5, 0.5), (0.5, 0), (0.5, 0), (0.5, 0.5), (0.40245482, 0.009607434), (0.40245482, 0.009607434), (0.5, 0.5), (0.3086583, 0.038060308), (0.3086583, 0.038060308), (0.5, 0.5), (0.22221488, 0.08426523), (0.22221488, 0.08426523), (0.5, 0.5), (0.14644662, 0.14644659), (0.14644662, 0.14644659), (0.5, 0.5), (0.0842652, 0.22221488), (0.0842652, 0.22221488), (0.5, 0.5), (0.038060278, 0.3086583), (0.038060278, 0.3086583), (0.5, 0.5), (0.0096074045, 0.40245485), (0.0096074045, 0.40245485), (0.5, 0.5), (0, 0.5), (0, 0.5), (0.5, 0.5), (0.0096074045, 0.59754515), (0.0096074045, 0.59754515), (0.5, 0.5), (0.038060278, 0.6913417), (0.038060278, 0.6913417), (0.5, 0.5), (0.0842652, 0.7777851), (0.0842652, 0.7777851), (0.5, 0.5), (0.14644662, 0.8535534), (0.14644662, 0.8535534), (0.5, 0.5), (0.22221488, 0.91573477), (0.22221488, 0.91573477), (0.5, 0.5), (0.3086583, 0.9619397), (0.3086583, 0.9619397), (0.5, 0.5), (0.40245482, 0.99039257), (0.40245482, 0.99039257), (0.5, 0.5), (0.5, 1), (0.5, 1), (0.5, 0.5), (0.59754515, 0.99039257), (0.59754515, 0.99039257), (0.5, 0.5), (0.6913417, 0.9619397), (0.6913417, 0.9619397), (0.5, 0.5), (0.7777851, 0.91573477), (0.7777851, 0.91573477), (0.5, 0.5), (0.8535534, 0.8535534), (0.8535534, 0.8535534), (0.5, 0.5), (0.91573477, 0.7777851), (0.91573477, 0.7777851), (0.5, 0.5), (0.9619397, 0.6913417), (0.9619397, 0.6913417), (0.5, 0.5), (0.99039257, 0.59754515), (0.99039257, 0.59754515), (0.5, 0.5), (1, 0.5), (1, 0.5), (0.99039257, 0.59754515), (0.5, 0.5), (0.99039257, 0.59754515), (0.9619397, 0.6913417), (0.5, 0.5), (0.9619397, 0.6913417), (0.91573477, 0.7777851), (0.5, 0.5), (0.91573477, 0.7777851), (0.8535534, 0.8535534), (0.5, 0.5), (0.8535534, 0.8535534), (0.7777851, 0.91573477), (0.5, 0.5), (0.7777851, 0.91573477), (0.6913417, 0.9619397), (0.5, 0.5), (0.6913417, 0.9619397), (0.59754515, 0.99039257), (0.5, 0.5), (0.59754515, 0.99039257), (0.5, 1), (0.5, 0.5), (0.5, 1), (0.40245482, 0.99039257), (0.5, 0.5), (0.40245482, 0.99039257), (0.3086583, 0.9619397), (0.5, 0.5), (0.3086583, 0.9619397), (0.22221488, 0.91573477), (0.5, 0.5), (0.22221488, 0.91573477), (0.14644662, 0.8535534), (0.5, 0.5), (0.14644662, 0.8535534), (0.0842652, 0.7777851), (0.5, 0.5), (0.0842652, 0.7777851), (0.038060278, 0.6913417), (0.5, 0.5), (0.038060278, 0.6913417), (0.0096074045, 0.59754515), (0.5, 0.5), (0.0096074045, 0.59754515), (0, 0.5), (0.5, 0.5), (0, 0.5), (0.0096074045, 0.40245482), (0.5, 0.5), (0.0096074045, 0.40245482), (0.038060278, 0.3086583), (0.5, 0.5), (0.038060278, 0.3086583), (0.0842652, 0.22221488), (0.5, 0.5), (0.0842652, 0.22221488), (0.14644662, 0.14644662), (0.5, 0.5), (0.14644662, 0.14644662), (0.22221488, 0.0842652), (0.5, 0.5), (0.22221488, 0.0842652), (0.3086583, 0.038060278), (0.5, 0.5), (0.3086583, 0.038060278), (0.40245482, 0.0096074045), (0.5, 0.5), (0.40245482, 0.0096074045), (0.5, 0), (0.5, 0.5), (0.5, 0), (0.59754515, 0.0096074045), (0.5, 0.5), (0.59754515, 0.0096074045), (0.6913417, 0.038060278), (0.5, 0.5), (0.6913417, 0.038060278), (0.7777851, 0.0842652), (0.5, 0.5), (0.7777851, 0.0842652), (0.8535534, 0.14644662), (0.5, 0.5), (0.8535534, 0.14644662), (0.91573477, 0.22221488), (0.5, 0.5), (0.91573477, 0.22221488), (0.9619397, 0.3086583), (0.5, 0.5), (0.9619397, 0.3086583), (0.99039257, 0.40245482), (0.5, 0.5), (0.99039257, 0.40245482), (1, 0.5), (0.5, 0.5)] (
                interpolation = "faceVarying"
            )
            uniform token subdivisionScheme = "none"
            quatd xformOp:orient = (1, 0, 0, 0)
            double3 xformOp:scale = (0.11, 0.11, 0.002)
            double3 xformOp:translate = (-0.1, 0.05, 0.751)
            uniform token[] xformOpOrder = ["xformOp:translate", "xformOp:orient", "xformOp:scale"]
        }
    }

    over "GroundPlane"
    {
        over "CollisionMesh"
        {
            quatf xformOp:orient = (0.9953887, 0, 0, -0.09592343)
            float3 xformOp:scale = (1, 1, 1)
            double3 xformOp:translate = (0, 0, 0)
            uniform token[] xformOpOrder = ["xformOp:translate", "xformOp:orient", "xformOp:scale"]
        }
    }

    def Scope "Looks"
    {
    }

    def Material "PlaceTargetGreen"
    {
        token outputs:mdl:displacement.connect = </World/PlaceTargetGreen/Shader.outputs:out>
        token outputs:mdl:surface.connect = </World/PlaceTargetGreen/Shader.outputs:out>
        token outputs:mdl:volume.connect = </World/PlaceTargetGreen/Shader.outputs:out>

        def Shader "Shader"
        {
            uniform token info:implementationSource = "sourceAsset"
            uniform asset info:mdl:sourceAsset = @OmniPBR.mdl@
            uniform token info:mdl:sourceAsset:subIdentifier = "OmniPBR"
            color3f inputs:diffuse_color_constant = (0.08, 0.65, 0.12)
            token outputs:out (
                renderType = "material"
            )
        }
    }
}

over "Render"
{
    over "OmniverseKit"
    {
        over "HydraTextures"
        {
            over "omni_kit_widget_viewport_ViewportTexture_0"
            {
                rel camera = </OmniverseKit_Persp>
                bool omni:rtx:rt:ecoMode:enabled
                rel orderedVars = </Render/Vars/LdrColor>
                custom bool overrideClipRange = 0
                uniform int2 resolution = (1280, 720)
            }
        }
    }
}

